<svg width="128" height="128" viewBox="0 0 128 128" fill="none" xmlns="http://www.w3.org/2000/svg">
  <title>GullyDev</title>
  <rect x="8" y="8" width="112" height="112" rx="30" fill="#111113"/>
  <rect x="9.5" y="9.5" width="109" height="109" rx="28.5" stroke="#FFFFFF" stroke-opacity=".08" stroke-width="3"/>
  <path d="M68.5 31.5C48.8 31.5 34.4 45.7 34.4 64.2C34.4 82.9 48.9 96.5 69.1 96.5C80.2 96.5 89.9 92.7 96.2 86V61.7H66.2V75.3H80.8V79.4C78 81.6 74.1 83 69.5 83C58.1 83 50.5 75.4 50.5 64.2C50.5 53 58.1 45.2 68.8 45.2C75.6 45.2 81 48 85.1 53.6L97.3 45.7C91.2 36.8 81 31.5 68.5 31.5Z" fill="#FAFAFA"/>
  <path d="M38 105H90" stroke="url(#lane)" stroke-width="7" stroke-linecap="round"/>
  <defs>
    <linearGradient id="lane" x1="38" y1="105" x2="90" y2="105" gradientUnits="userSpaceOnUse">
      <stop stop-color="#00C878"/>
      <stop offset="1" stop-color="#1D63D9"/>
    </linearGradient>
  </defs>
</svg>
